<?xml version="1.0" encoding="UTF-8"?>
<svg version="1.1" xmlns="http://www.w3.org/2000/svg" width="386" height="120">
<path d="M0 0 C11.92905925 6.66900163 17.57397784 23.58221676 23.296875 35.171875 C23.78127045 36.14648682 24.26566589 37.12109863 24.76473999 38.12524414 C50.34629376 89.60036699 50.34629376 89.60036699 45.77734375 103.671875 C42.89893326 109.98704986 37.53097981 115.90280322 31.05859375 118.63671875 C21.57198976 120.95163169 12.87919168 119.95539068 4.41796875 115.16796875 C-0.25595792 111.95017501 -4.37489289 108.23233838 -8.390625 104.234375 C-9.7828125 105.5028125 -9.7828125 105.5028125 -11.203125 106.796875 C-21.01985601 115.21407206 -29.70667303 119.90046341 -42.72265625 119.54296875 C-50.2191436 118.91227386 -54.87596227 115.49914336 -59.91796875 110.078125 C-64.31509246 104.57297277 -65.61094638 98.12563465 -65.390625 91.234375 C-63.2781885 81.69851017 -59.16755852 73.04714959 -54.828125 64.359375 C-54.20174363 63.08845181 -53.57635287 61.81703997 -52.9519043 60.54516602 C-52.005175 58.61729337 -51.05775313 56.68980026 -50.10658264 54.76411438 C-47.6920417 49.87272863 -45.35512163 44.94762941 -43.03857422 40.0090332 C-39.10029641 31.64217279 -35.02737135 23.34642607 -30.703125 15.171875 C-30.28780518 14.3564624 -29.87248535 13.5410498 -29.44458008 12.70092773 C-23.32634489 1.40251525 -12.77564466 -4.09154633 0 0 Z M-16.390625 10.234375 C-21.13795141 15.67156461 -24.44274427 21.76207656 -27.62109375 28.19921875 C-28.33057159 29.61374832 -28.33057159 29.61374832 -29.05438232 31.05685425 C-30.57178781 34.09057481 -32.07613982 37.13049355 -33.578125 40.171875 C-34.34589767 41.71964127 -34.34589767 41.71964127 -35.12918091 43.29867554 C-41.0027836 55.1453827 -46.87840781 66.99777947 -52.328125 79.046875 C-52.98107544 80.4534436 -52.98107544 80.4534436 -53.6472168 81.88842773 C-56.56397009 88.54668002 -57.66587485 94.40862545 -55.328125 101.421875 C-52.50031548 105.52675979 -48.88047489 108.98945005 -44.390625 111.234375 C-35.33762095 112.1640606 -29.71664134 110.68273911 -22.67578125 105.0703125 C-18.88280425 101.80658769 -18.88280425 101.80658769 -15.390625 98.234375 C-15.390625 94.52262746 -16.36044469 93.64714914 -18.578125 90.734375 C-26.20844655 80.17883891 -29.53233411 70.23717319 -28.390625 57.234375 C-26.82964479 52.3138939 -23.66051614 49.04625453 -19.390625 46.234375 C-13.53346044 43.51216932 -7.30365843 43.07300252 -1.07421875 44.921875 C3.72880064 47.10920831 6.59381691 49.93948924 9.609375 54.234375 C12.53225157 63.0030047 11.02205536 72.14620486 7.1796875 80.3359375 C4.57571874 85.1422679 1.68483956 89.71801268 -1.390625 94.234375 C-2.050625 95.224375 -2.710625 96.214375 -3.390625 97.234375 C2.21792095 103.51148934 9.89586045 110.56941737 18.66015625 111.4375 C23.76555816 111.54331144 27.27525279 111.22010363 31.609375 108.234375 C35.63581068 104.15122895 38.73564457 100.71483963 39.234375 94.859375 C39.08016403 86.26762076 34.91132638 79.05646756 31.20654297 71.49511719 C29.38418049 67.77462295 27.59221417 64.04013733 25.80078125 60.3046875 C22.39320285 53.21199851 18.94739917 46.13849132 15.48632812 39.07177734 C13.82487475 35.6788537 12.17722194 32.27936971 10.53125 28.87890625 C9.66221205 27.10119385 8.79248794 25.3238166 7.921875 23.546875 C7.54877197 22.77085938 7.17566895 21.99484375 6.79125977 21.1953125 C4.27862423 16.11608032 1.62120155 10.74814521 -3.63671875 8.10546875 C-8.84847509 7.07426562 -11.93959514 6.87137466 -16.390625 10.234375 Z M-18.390625 55.234375 C-21.23751449 59.18328623 -21.96307498 62.55033254 -21.234375 67.39453125 C-18.84026093 75.4524985 -14.79123808 84.63923233 -8.390625 90.234375 C1.4697574 76.50228749 1.4697574 76.50228749 3.609375 60.234375 C1.35603296 55.89460514 -0.84429429 53.13749018 -5.390625 51.234375 C-11.04907568 50.51420855 -14.08044633 51.51194796 -18.390625 55.234375 Z " fill="#414144" transform="translate(65.390625,0.765625)"/>
<path d="M0 0 C3.96 0 7.92 0 12 0 C12.33 7.92 12.66 15.84 13 24 C14.65 23.01 16.3 22.02 18 21 C25.8486721 19.67302923 32.32274432 20.64044774 38.90234375 25.14453125 C43.57544221 29.27809134 46.70809257 34.54496454 47.23828125 40.8203125 C47.42614001 49.18497117 46.92345266 55.65081099 41.1640625 62.03515625 C35.0536078 67.73590613 29.69883297 69.4071936 21.4140625 69.26953125 C18.16387822 68.9066466 15.74545287 67.73397023 13 66 C12.01 66.99 12.01 66.99 11 68 C7.37 68 3.74 68 0 68 C0 45.56 0 23.12 0 0 Z M12 37 C11.76570114 39.62474034 11.62921662 42.18294482 11.5625 44.8125 C11.51673828 45.53759766 11.47097656 46.26269531 11.42382812 47.00976562 C11.3086138 49.44390648 11.3086138 49.44390648 12 53 C15.11676438 55.79191851 17.80777347 57.56854907 22.0625 57.4375 C27.31272123 56.85414209 30.59929103 54.99091466 34 51 C35.31731308 46.62285212 35.32538863 42.92478873 33.8125 38.625 C31.47685849 35.24234678 29.99611128 33.52569343 25.953125 32.4609375 C19.89257932 31.42373002 16.47922972 32.52077028 12 37 Z " fill="#414144" transform="translate(240,22)"/>
<path d="M0 0 C3.96 0 7.92 0 12 0 C12.33 7.59 12.66 15.18 13 23 C14.32 22.34 15.64 21.68 17 21 C24.61672477 20.13354718 31.76181541 20.18605847 38 25 C43.58956165 29.92596073 46.28419295 35.7308648 47.28125 43.0703125 C47.62573629 50.39064621 44.79600199 56.71933875 40.45703125 62.4609375 C36.54978374 66.58816409 31.45236625 68.67359446 25.8515625 69.203125 C20.76702044 69.31016799 17.4540782 68.7409712 13 66 C12.01 66.99 12.01 66.99 11 68 C7.37 68 3.74 68 0 68 C0 45.56 0 23.12 0 0 Z M15.30859375 34.02734375 C14.21675781 34.67832031 13.12492187 35.32929687 12 36 C11.86482097 38.75164432 11.76584749 41.49664521 11.6875 44.25 C11.64560547 45.02730469 11.60371094 45.80460937 11.56054688 46.60546875 C11.45348687 51.5293367 11.45348687 51.5293367 14.2421875 55.515625 C18.31525974 57.70793017 21.4895434 57.79409447 26 57 C30.09507797 54.91523303 32.2954921 53.23802646 34 49 C34.57903708 44.79634117 34.42411894 41.08385951 32.875 37.125 C29.7887789 33.62728275 26.64190723 32.24453937 22.0625 31.5625 C19.11250526 31.98392782 17.79890137 32.54256766 15.30859375 34.02734375 Z " fill="#414144" transform="translate(339,22)"/>
<path d="M0 0 C1.1034375 -0.01675781 2.206875 -0.03351562 3.34375 -0.05078125 C6.79823407 0.34682645 8.68673608 1.32327048 11.5 3.3125 C11.5 2.6525 11.5 1.9925 11.5 1.3125 C15.46 1.3125 19.42 1.3125 23.5 1.3125 C23.5 16.4925 23.5 31.6725 23.5 47.3125 C19.87 47.3125 16.24 47.3125 12.5 47.3125 C11.84 46.6525 11.18 45.9925 10.5 45.3125 C9.71625 45.8075 8.9325 46.3025 8.125 46.8125 C2.52263497 49.13072001 -2.4116445 49.36137545 -8.19140625 47.3984375 C-15.29776034 44.11532309 -20.10032913 39.93405882 -22.9921875 32.421875 C-24.71395718 25.26990863 -24.25838177 17.92032019 -20.90234375 11.3515625 C-15.69052874 3.77338023 -9.15679867 0.03209158 0 0 Z M-8.5 15.3125 C-11.22572973 19.4010946 -11.78627761 22.26553405 -10.9375 27 C-9.91033391 30.72189194 -8.69717543 32.98728151 -5.5 35.3125 C-2.79788939 36.21320354 -0.92931069 36.53407525 1.875 36.625 C2.62523437 36.66238281 3.37546875 36.69976562 4.1484375 36.73828125 C7.6261422 36.10859718 9.13208987 34.92749641 11.5 32.3125 C11.98722793 29.40728997 12.15912572 27.19560243 12.0625 24.3125 C12.07345703 23.6009375 12.08441406 22.889375 12.09570312 22.15625 C12.047526 18.71319151 11.76402951 16.66988485 9.69921875 13.875 C3.63834236 9.56887113 -2.97210109 10.92306997 -8.5 15.3125 Z " fill="#414044" transform="translate(159.5,42.6875)"/>
<path d="M0 0 C3.61400234 2.71050175 6.45740163 5.78980327 8.5 9.875 C8.58675538 12.57393181 8.61557897 15.24669231 8.59765625 17.9453125 C8.5962413 18.74154022 8.59482635 19.53776794 8.59336853 20.35812378 C8.58776345 22.9054538 8.57521014 25.45269647 8.5625 28 C8.55748565 29.72525915 8.55292263 31.45051967 8.54882812 33.17578125 C8.53779237 37.40888791 8.52052436 41.64192914 8.5 45.875 C4.54 45.875 0.58 45.875 -3.5 45.875 C-3.51458252 44.95686523 -3.52916504 44.03873047 -3.54418945 43.09277344 C-3.60533515 39.67812091 -3.67950217 36.26426328 -3.76245117 32.85009766 C-3.79565355 31.37396862 -3.82370017 29.89771406 -3.84643555 28.42138672 C-3.88006951 26.29600668 -3.93238519 24.17177196 -3.98828125 22.046875 C-4.01446533 20.7690918 -4.04064941 19.49130859 -4.06762695 18.17480469 C-4.52072223 14.71685113 -4.94573459 13.22226113 -7.5 10.875 C-12.75325593 10.37468991 -14.70605447 10.47802724 -19.5 12.875 C-19.83 23.765 -20.16 34.655 -20.5 45.875 C-24.79 45.875 -29.08 45.875 -33.5 45.875 C-33.5 30.695 -33.5 15.515 -33.5 -0.125 C-22.5 -0.125 -22.5 -0.125 -20.5 0.875 C-19.93023437 0.57207031 -19.36046875 0.26914062 -18.7734375 -0.04296875 C-13.25823127 -2.66790367 -5.66401114 -1.82057501 0 0 Z " fill="#414144" transform="translate(324.5,44.125)"/>
<path d="M0 0 C0 3.96 0 7.92 0 12 C-2.18098958 11.93489583 -4.36197917 11.86979167 -6.54296875 11.8046875 C-9.51328975 11.91855507 -9.51328975 11.91855507 -14 14 C-14.33 24.89 -14.66 35.78 -15 47 C-19.29 47 -23.58 47 -28 47 C-28 31.82 -28 16.64 -28 1 C-24.04 1 -20.08 1 -16 1 C-15.67 1.66 -15.34 2.32 -15 3 C-14.38125 2.505 -13.7625 2.01 -13.125 1.5 C-8.61755528 -0.66357347 -4.97363324 -0.19894533 0 0 Z " fill="#414144" transform="translate(236,43)"/>
<path d="M0 0 C4.29 0 8.58 0 13 0 C13 15.18 13 30.36 13 46 C8.71 46 4.42 46 0 46 C0 30.82 0 15.64 0 0 Z " fill="#414145" transform="translate(189,44)"/>
<path d="M0 0 C3.38677089 2.45000447 4.78698584 3.86392446 5.5625 8 C4.84202557 11.8425303 3.99097304 13.45767292 1 16 C-1.79885528 16.65956631 -4.19628845 16.62176765 -7 16 C-9.78712003 14.07045537 -10.73691052 12.73289213 -11.875 9.5625 C-12.02583739 6.47033348 -11.46741381 4.71471554 -10 2 C-6.24952518 -0.50031654 -4.44143734 -0.53603554 0 0 Z " fill="#414044" transform="translate(199,22)"/>
</svg>
