<?xml version="1.0" encoding="UTF-8"?>
<svg version="1.1" xmlns="http://www.w3.org/2000/svg" width="385" height="78">
<path d="M0 0 C6.001875 -0.0928125 6.001875 -0.0928125 12.125 -0.1875 C13.37555176 -0.21481201 14.62610352 -0.24212402 15.91455078 -0.27026367 C22.73068595 -0.32132703 27.53556725 -0.00250838 32.875 4.625 C34.64017718 8.35148515 34.56159589 11.9536296 34 16 C32.5 19.0625 32.5 19.0625 31 21 C31.804375 21.70125 32.60875 22.4025 33.4375 23.125 C36.32826999 26.36830292 37 27.69774878 37 32 C35.53467132 36.55023117 34.23964853 39.6151977 30 42 C26.70265354 43.09911549 24.27041255 43.1139456 20.80078125 43.09765625 C19.71192627 43.09515869 18.62307129 43.09266113 17.5012207 43.09008789 C16.11894287 43.08098389 14.73666504 43.07187988 13.3125 43.0625 C8.919375 43.041875 4.52625 43.02125 0 43 C0 28.81 0 14.62 0 0 Z M10 9 C10 11.64 10 14.28 10 17 C11.77049689 17.05410687 13.54146849 17.09284119 15.3125 17.125 C16.79169922 17.15980469 16.79169922 17.15980469 18.30078125 17.1953125 C21.22406527 17.20682639 21.22406527 17.20682639 24 15 C23.65555119 12.52733235 23.65555119 12.52733235 23 10 C20.35541621 8.67770811 18.32238699 8.90322806 15.375 8.9375 C13.87066406 8.95103516 13.87066406 8.95103516 12.3359375 8.96484375 C11.17964844 8.98224609 11.17964844 8.98224609 10 9 Z M10 26 C10 28.64 10 31.28 10 34 C12.29141286 34.05384521 14.58318188 34.09272087 16.875 34.125 C18.15117188 34.14820313 19.42734375 34.17140625 20.7421875 34.1953125 C24.08593338 34.35641524 24.08593338 34.35641524 26 32 C25.71016731 28.69316534 25.71016731 28.69316534 24 26 C21.64686445 25.92728259 19.29166332 25.91629132 16.9375 25.9375 C15.64714844 25.94652344 14.35679688 25.95554687 13.02734375 25.96484375 C12.02832031 25.97644531 11.02929688 25.98804687 10 26 Z " fill="#414144" transform="translate(96,17)"/>
<path d="M0 0 C10 0 10 0 12.37280273 1.68066406 C12.88786377 2.45120117 13.4029248 3.22173828 13.93359375 4.015625 C14.51947266 4.85480469 15.10535156 5.69398437 15.70898438 6.55859375 C16.27939453 7.44675781 16.84980469 8.33492187 17.4375 9.25 C18.03498047 10.12269531 18.63246094 10.99539062 19.24804688 11.89453125 C20.35846062 13.51982958 21.45515165 15.1546559 22.53295898 16.80175781 C23.94666391 18.92008019 25.47195993 20.96261324 27 23 C27.33 15.41 27.66 7.82 28 0 C31.3 0 34.6 0 38 0 C38 14.19 38 28.38 38 43 C29 43 29 43 26.7565918 41.42700195 C25.98569214 40.34358521 25.98569214 40.34358521 25.19921875 39.23828125 C24.61462891 38.44873047 24.03003906 37.65917969 23.42773438 36.84570312 C22.85345703 36.00974609 22.27917969 35.17378906 21.6875 34.3125 C21.09388672 33.49587891 20.50027344 32.67925781 19.88867188 31.83789062 C18.77772381 30.30832445 17.67874865 28.7699309 16.59643555 27.2199707 C14.81865489 24.74782519 12.90219463 22.37774328 11 20 C10.67 27.59 10.34 35.18 10 43 C6.7 43 3.4 43 0 43 C0 28.81 0 14.62 0 0 Z " fill="#414044" transform="translate(260,17)"/>
<path d="M0 0 C9 0 9 0 11.78515625 2.23828125 C12.53667969 3.25277344 13.28820312 4.26726563 14.0625 5.3125 C14.67520752 6.1154248 14.67520752 6.1154248 15.30029297 6.93457031 C16.56292908 8.60338622 17.78241908 10.29812615 19 12 C19.80154953 13.08339194 20.60488498 14.16546526 21.41015625 15.24609375 C23.30102993 17.81061202 25.15450417 20.40263549 27 23 C27.33 15.41 27.66 7.82 28 0 C31.3 0 34.6 0 38 0 C38 14.19 38 28.38 38 43 C29 43 29 43 25.9609375 40.25390625 C25.06947388 39.04462794 24.2077617 37.81292768 23.375 36.5625 C22.50803121 35.35531165 21.64083989 34.14828309 20.7734375 32.94140625 C19.85820312 31.64074219 18.94296875 30.34007812 18 29 C15.69 26.03 13.38 23.06 11 20 C10.67 27.59 10.34 35.18 10 43 C6.7 43 3.4 43 0 43 C0 28.81 0 14.62 0 0 Z " fill="#414144" transform="translate(164,17)"/>
<path d="M0 0 C10.56 0 21.12 0 32 0 C32 2.97 32 5.94 32 9 C24.74 9 17.48 9 10 9 C10 11.64 10 14.28 10 17 C16.6 17 23.2 17 30 17 C30 19.97 30 22.94 30 26 C23.4 26 16.8 26 10 26 C10 28.64 10 31.28 10 34 C17.26 34 24.52 34 32 34 C32 36.97 32 39.94 32 43 C21.44 43 10.88 43 0 43 C0 28.81 0 14.62 0 0 Z " fill="#414145" transform="translate(353,17)"/>
<path d="M0 0 C3.3 0 6.6 0 10 0 C20.75092015 24.22680866 20.75092015 24.22680866 25.1875 35 C25.47826416 35.70439209 25.76902832 36.40878418 26.06860352 37.13452148 C28 41.86683239 28 41.86683239 28 43 C24.37 43 20.74 43 17 43 C16.01 40.03 15.02 37.06 14 34 C8.06 34 2.12 34 -4 34 C-4.99 36.97 -5.98 39.94 -7 43 C-10.63 43 -14.26 43 -18 43 C-14.49238144 33.65974086 -10.70648515 24.47152188 -6.75 15.3125 C-6.20291178 14.03980517 -5.65603592 12.76701905 -5.109375 11.49414062 C-1.1699445 2.339889 -1.1699445 2.339889 0 0 Z M4 13 C3.3291288 14.6232687 2.66342971 16.24867578 2 17.875 C1.62875 18.77992187 1.2575 19.68484375 0.875 20.6171875 C-0.11490226 22.88983858 -0.11490226 22.88983858 0 25 C3.3 25 6.6 25 10 25 C8.35 21.04 6.7 17.08 5 13 C4.67 13 4.34 13 4 13 Z " fill="#414144" transform="translate(226,17)"/>
<path d="M0 0 C2.5625 1.6875 2.5625 1.6875 4 3 C1.89285714 8.99725275 1.89285714 8.99725275 -1 11 C-3.3047022 10.7769643 -4.77674474 10.13554784 -6.75 8.9375 C-10.16582266 7.51424056 -13.40590348 7.31015422 -17 8 C-20.52379766 9.97029546 -22.70068885 12.10206655 -24 16 C-24.39246657 21.20018211 -24.03988646 24.68532244 -21 29 C-17.92064199 30.9321462 -15.64596375 32.15928681 -11.94140625 31.80078125 C-8.16385056 30.90816412 -4.55501628 29.55531962 -1 28 C0.65 29.65 2.3 31.3 4 33 C2.49235345 37.22141034 -0.21292869 38.80349864 -4 41 C-10.45604205 43.03245768 -17.87684605 42.82743747 -24.11328125 40.18359375 C-29.45792232 36.83074438 -33.93220513 31.12666588 -35.51953125 24.9921875 C-36.58168492 17.31635697 -35.15105754 10.391889 -30.4375 4.125 C-22.05970716 -4.66856419 -10.47012086 -4.56653601 0 0 Z " fill="#414144" transform="translate(342,19)"/>
<path d="M0 0 C4.07376031 1.61010527 6.76507069 4.53822271 9.75 7.625 C10.25660156 8.140625 10.76320313 8.65625 11.28515625 9.1875 C12.52803902 10.45383339 13.76465276 11.7263144 15 13 C19.07376031 11.38989473 21.76507069 8.46177729 24.75 5.375 C25.25660156 4.859375 25.76320312 4.34375 26.28515625 3.8125 C27.52803902 2.54616661 28.76465276 1.2736856 30 0 C34.29378813 1.92287034 36.77153701 4.62478869 40 8 C38.43717018 11.76603869 36.0936525 14.13639151 33.2109375 16.984375 C32.74765045 17.44483215 32.2843634 17.90528931 31.80703735 18.37969971 C30.33434102 19.84125078 28.85482597 21.29567168 27.375 22.75 C26.37193678 23.74302611 25.36932743 24.73651089 24.3671875 25.73046875 C21.91669165 28.15897941 19.4600333 30.58114675 17 33 C13.23396131 31.43717018 10.86360849 29.0936525 8.015625 26.2109375 C7.55516785 25.74765045 7.09471069 25.2843634 6.62030029 24.80703735 C5.15874922 23.33434102 3.70432832 21.85482597 2.25 20.375 C1.25697389 19.37193678 0.26348911 18.36932743 -0.73046875 17.3671875 C-3.15897941 14.91669165 -5.58114675 12.4600333 -8 10 C-5.95933017 5.73384496 -3.41446998 3.26601476 0 0 Z " fill="#414144" transform="translate(24,45)"/>
<path d="M0 0 C3.76603869 1.56282982 6.13639151 3.9063475 8.984375 6.7890625 C9.44483215 7.25234955 9.90528931 7.7156366 10.37969971 8.19296265 C11.84125078 9.66565898 13.29567168 11.14517403 14.75 12.625 C15.74302611 13.62806322 16.73651089 14.63067257 17.73046875 15.6328125 C20.15897941 18.08330835 22.58114675 20.5399667 25 23 C22.95933017 27.26615504 20.41446998 29.73398524 17 33 C12.92623969 31.38989473 10.23492931 28.46177729 7.25 25.375 C6.74339844 24.859375 6.23679687 24.34375 5.71484375 23.8125 C4.47196098 22.54616661 3.23534724 21.2736856 2 20 C-2.07376031 21.61010527 -4.76507069 24.53822271 -7.75 27.625 C-8.50990234 28.3984375 -8.50990234 28.3984375 -9.28515625 29.1875 C-10.52803902 30.45383339 -11.76465276 31.7263144 -13 33 C-17.29378813 31.07712966 -19.77153701 28.37521131 -23 25 C-21.43717018 21.23396131 -19.0936525 18.86360849 -16.2109375 16.015625 C-15.74765045 15.55516785 -15.2843634 15.09471069 -14.80703735 14.62030029 C-13.33434102 13.15874922 -11.85482597 11.70432832 -10.375 10.25 C-9.37193678 9.25697389 -8.36932743 8.26348911 -7.3671875 7.26953125 C-4.91669165 4.84102059 -2.4600333 2.41885325 0 0 Z " fill="#414144" transform="translate(39,0)"/>
<path d="M0 0 C3.3 0 6.6 0 10 0 C10 14.19 10 28.38 10 43 C6.7 43 3.4 43 0 43 C0 28.81 0 14.62 0 0 Z " fill="#414143" transform="translate(142,17)"/>
<path d="M0 0 C4.29238623 1.65091778 6.8793915 4.73754566 10 8 C8.34908222 12.29238623 5.26245434 14.8793915 2 18 C-2.29238623 16.34908222 -4.8793915 13.26245434 -8 10 C-6.34908222 5.70761377 -3.26245434 3.1206085 0 0 Z " fill="#414042" transform="translate(69,30)"/>
<path d="M0 0 C4.29238623 1.65091778 6.8793915 4.73754566 10 8 C8.34908222 12.29238623 5.26245434 14.8793915 2 18 C-2.29238623 16.34908222 -4.8793915 13.26245434 -8 10 C-6.34908222 5.70761377 -3.26245434 3.1206085 0 0 Z " fill="#414144" transform="translate(39,30)"/>
<path d="M0 0 C4.29238623 1.65091778 6.8793915 4.73754566 10 8 C8.34908222 12.29238623 5.26245434 14.8793915 2 18 C-2.29238623 16.34908222 -4.8793915 13.26245434 -8 10 C-6.34908222 5.70761377 -3.26245434 3.1206085 0 0 Z " fill="#414044" transform="translate(9,30)"/>
</svg>
