<?xml version="1.0" encoding="UTF-8"?>
<svg version="1.1" xmlns="http://www.w3.org/2000/svg" width="379" height="83">
<path d="M0 0 C4.29 0 8.58 0 13 0 C13.33 9.24 13.66 18.48 14 28 C14.99 27.67 15.98 27.34 17 27 C26.23562171 26.21637149 34.32259928 26.22804112 42 32 C47.73656059 37.21213621 50.67850458 41.93329175 51.30078125 49.8046875 C51.32026319 51.16132408 51.32373254 52.51827004 51.3125 53.875 C51.30404053 54.93835571 51.30404053 54.93835571 51.29541016 56.02319336 C51.11260376 63.88658318 49.23457381 69.53919686 43.875 75.39453125 C37.04985937 81.23855792 29.27847021 83.12919536 20.5 83.25 C19.3965625 83.27578125 18.293125 83.3015625 17.15625 83.328125 C11.3489598 82.86965472 5.6761791 81.30988749 0 80 C0 53.6 0 27.2 0 0 Z M13 40 C13 50.23 13 60.46 13 71 C17.79634495 73.39817248 23.89546204 72.34403641 28.8125 70.8125 C33.50717568 68.14297854 36.25057725 65.77136286 38.375 60.75 C39.36378296 54.81730224 39.01515362 50.15212567 36.4375 44.6875 C32.63855408 40.4989186 28.56295467 38.31383118 22.9375 37.625 C19.27098256 38.01805859 19.27098256 38.01805859 13 40 Z " fill="#414043" transform="translate(185,0)"/>
<path d="M0 0 C5.22703382 4.03606409 7.82352799 8.83049489 9.7890625 15.0546875 C10.7200658 24.83022214 9.8972175 33.86786303 3.8515625 42.0546875 C-3.53672156 48.95041929 -10.88358505 51.0575763 -20.7890625 50.9609375 C-28.23405467 50.30079041 -34.85370879 47.14323449 -39.9609375 41.6796875 C-44.87817745 33.58227606 -47.27765535 25.69846316 -45.5 16.22265625 C-43.16669003 7.28745159 -38.83813883 1.29770837 -30.890625 -3.41015625 C-20.80309431 -8.16804016 -8.91094291 -5.99979822 0 0 Z M-30.8359375 12.1796875 C-33.57050822 18.25651133 -33.77548162 24.00979287 -31.8359375 30.3671875 C-29.36971619 34.72417848 -26.49923067 37.41054092 -21.9609375 39.6796875 C-16.73375037 40.12266946 -12.95942876 39.97847125 -8.50390625 37.0625 C-4.88424452 33.81854999 -3.31271156 29.96440564 -2.58203125 25.21875 C-2.29806097 19.2645344 -3.39125855 14.5059824 -6.9609375 9.6796875 C-10.30554168 6.5684278 -12.91681466 5.42358534 -17.3984375 5.1796875 C-23.18008472 5.46243247 -27.29183664 7.45421969 -30.8359375 12.1796875 Z " fill="#414144" transform="translate(89.9609375,32.3203125)"/>
<path d="M0 0 C3.69833868 2.81744894 5.82392901 5.00572553 7.06640625 9.57421875 C7.61325774 15.59512293 7.28867123 21.5286112 7.06640625 27.57421875 C-4.48359375 27.57421875 -16.03359375 27.57421875 -27.93359375 27.57421875 C-25.19426027 35.6722584 -25.19426027 35.6722584 -18.93359375 39.57421875 C-11.31066873 42.11519376 -4.19339684 40.4395398 3.06640625 37.57421875 C4.05640625 37.24421875 5.04640625 36.91421875 6.06640625 36.57421875 C6.06640625 40.53421875 6.06640625 44.49421875 6.06640625 48.57421875 C-3.36860139 52.8292222 -13.47603258 54.37770386 -23.68359375 51.57421875 C-29.93609965 49.08703408 -35.07844987 44.87059 -38.38671875 38.9921875 C-41.95265533 30.21546332 -42.20135182 21.05433275 -39.171875 12.06640625 C-36.13612631 5.95660289 -31.37822721 1.20397439 -25.74609375 -2.55078125 C-16.87038593 -4.58782895 -7.98504673 -4.80155199 0 0 Z M-25.93359375 12.57421875 C-26.59359375 14.55421875 -27.25359375 16.53421875 -27.93359375 18.57421875 C-20.01359375 18.57421875 -12.09359375 18.57421875 -3.93359375 18.57421875 C-4.46202461 12.84496581 -4.46202461 12.84496581 -6.87109375 9.69921875 C-10.63405783 7.08818245 -12.99182566 6.84839364 -17.4921875 7.08984375 C-21.60216768 7.90526382 -23.17869822 9.40608889 -25.93359375 12.57421875 Z " fill="#414144" transform="translate(371.93359375,30.42578125)"/>
<path d="M0 0 C4.32886958 2.82317581 7.20614871 5.86844612 8.875 10.875 C8.96089303 12.27155459 8.99272715 13.67185777 8.98852539 15.07104492 C8.98844986 15.91168991 8.98837433 16.7523349 8.98829651 17.61845398 C8.98313522 18.52166885 8.97797394 19.42488373 8.97265625 20.35546875 C8.9712413 21.28345779 8.96982635 22.21144684 8.96836853 23.16755676 C8.96276937 26.13257058 8.95021704 29.09750899 8.9375 32.0625 C8.93248489 34.07226453 8.927922 36.08203025 8.92382812 38.09179688 C8.91280021 43.01956032 8.89553617 47.94726737 8.875 52.875 C-3.6986086 55.36013341 -16.1892734 56.96705988 -28 50.9140625 C-31.49680792 48.54363021 -32.66890258 45.93792626 -33.625 42 C-34.26980874 37.42525166 -34.16736596 34.1231212 -32.125 29.875 C-28.08409605 25.1714747 -24.19675989 23.23199415 -18.125 21.875 C-15.48204343 21.7448051 -12.83324703 21.70317262 -10.1875 21.75 C-9.50365234 21.75902344 -8.81980469 21.76804687 -8.11523438 21.77734375 C-6.45166713 21.80061042 -4.78828369 21.83646833 -3.125 21.875 C-3.35360058 20.41315942 -3.60870392 18.95544581 -3.875 17.5 C-4.01421875 16.68789063 -4.1534375 15.87578125 -4.296875 15.0390625 C-4.94072624 12.75701441 -4.94072624 12.75701441 -6.9140625 11.60546875 C-14.47172582 9.10850225 -21.88389593 11.39233575 -29.125 13.875 C-29.125 10.245 -29.125 6.615 -29.125 2.875 C-20.19666496 -1.52048802 -9.68257251 -3.53827048 0 0 Z M-20.125 33.875 C-21.28948881 36.77851124 -21.28948881 36.77851124 -21.125 39.875 C-19.41284522 43.04248634 -18.58764391 43.72078536 -15.125 44.875 C-11.12116868 45.00899703 -7.1322645 44.91808887 -3.125 44.875 C-3.125 40.255 -3.125 35.635 -3.125 30.875 C-5.001875 30.813125 -6.87875 30.75125 -8.8125 30.6875 C-9.86824219 30.65269531 -10.92398437 30.61789063 -12.01171875 30.58203125 C-15.53344262 30.91343563 -17.33889187 31.72643373 -20.125 33.875 Z " fill="#414144" transform="translate(273.125,28.125)"/>
<path d="M0 0 C0.76892578 -0.020625 1.53785156 -0.04125 2.33007812 -0.0625 C8.19733775 -0.10211019 14.07236092 0.58122998 18.7175293 4.56079102 C24.13951227 10.61463332 24.47689863 16.8933638 24.3828125 24.5859375 C24.3799826 25.46528961 24.37715271 26.34464172 24.37423706 27.25064087 C24.36309712 30.04223594 24.33800411 32.8335029 24.3125 35.625 C24.3024622 37.52473493 24.29333775 39.42447492 24.28515625 41.32421875 C24.26317806 45.96627107 24.2286911 50.60808002 24.1875 55.25 C19.8975 55.25 15.6075 55.25 11.1875 55.25 C11.17348145 53.55472168 11.17348145 53.55472168 11.15917969 51.82519531 C11.11927608 47.62785579 11.05351674 43.43124896 10.97998047 39.234375 C10.9517729 37.41871561 10.93055726 35.60293348 10.91650391 33.78710938 C10.89507091 31.17514211 10.84842115 28.56465026 10.796875 25.953125 C10.79564636 25.14256653 10.79441772 24.33200806 10.79315186 23.49688721 C10.70038746 19.91925148 10.5083777 17.692572 8.37988281 14.75683594 C2.62658248 10.80256314 -4.27607873 12.52373097 -10.8125 13.25 C-10.8125 27.11 -10.8125 40.97 -10.8125 55.25 C-14.7725 55.25 -18.7325 55.25 -22.8125 55.25 C-22.8125 38.42 -22.8125 21.59 -22.8125 4.25 C-14.42498437 1.45416146 -8.57095427 0.05662067 0 0 Z " fill="#414144" transform="translate(151.8125,26.75)"/>
<path d="M0 0 C0 3.96 0 7.92 0 12 C-1.65 11.34 -3.3 10.68 -5 10 C-9.46828066 8.5376536 -13.28758836 7.57159894 -18 8 C-18.99 8.66 -19.98 9.32 -21 10 C-21.2502157 13.08365871 -21.2502157 13.08365871 -21 16 C-20.29875 16.24234375 -19.5975 16.4846875 -18.875 16.734375 C-2.38833047 22.55847021 -2.38833047 22.55847021 2 28 C3.9336187 33.8008561 3.99359019 39.8981746 1.375 45.4375 C-3.05341598 50.21552777 -7.20663384 52.65617335 -13.62890625 53.23828125 C-21.33648387 53.43327988 -26.89646135 51.99096364 -34 49 C-34 45.04 -34 41.08 -34 37 C-29 39 -29 39 -26.6875 40.0625 C-22.09219877 41.66551206 -17.85531207 42.39474725 -13.0625 41.375 C-10.76315707 40.14988146 -10.76315707 40.14988146 -10.1875 37.5 C-9.97507002 35.08543713 -9.97507002 35.08543713 -10 33 C-10.61746094 32.82984375 -11.23492187 32.6596875 -11.87109375 32.484375 C-28.70696661 27.66680408 -28.70696661 27.66680408 -33 22 C-35.18541582 17.95698074 -35.46302911 14.55311961 -35 10 C-33.08281902 4.18309863 -30.5051258 0.92825841 -25 -2 C-16.85242347 -4.71585884 -7.63761212 -3.66605382 0 0 Z " fill="#414143" transform="translate(324,30)"/>
<path d="M0 0 C1.2684375 0.7425 1.2684375 0.7425 2.5625 1.5 C1.35407144 5.93090471 0.04581435 8.48112756 -3.4375 11.5 C-4.4275 11.17 -5.4175 10.84 -6.4375 10.5 C-12.77183645 9.96319183 -17.1707263 10.82296675 -22.4375 14.5 C-26.20130011 18.62803883 -26.58130059 24.08633081 -26.4375 29.5 C-25.39362201 34.05510394 -23.14199322 37.64224809 -19.4375 40.5 C-15.13111103 42.76085421 -12.0298597 42.36145515 -7.375 41.6875 C-1.99483268 41.09267405 -1.99483268 41.09267405 0.44921875 42.87890625 C2.64610027 45.8941104 3.5625 47.72269287 3.5625 51.5 C-5.38679901 55.29667231 -14.02910253 55.9153747 -23.3125 52.8125 C-30.82385472 49.69356104 -35.06524497 45.67348509 -38.4609375 38.3125 C-41.47137464 29.64244103 -41.27539942 20.43289076 -37.31640625 12.15625 C-30.05680003 -0.18302403 -13.37932696 -5.84828312 0 0 Z " fill="#414144" transform="translate(41.4375,28.5)"/>
<path d="M0 0 C4.29 0 8.58 0 13 0 C13 17.82 13 35.64 13 54 C8.71 54 4.42 54 0 54 C0 36.18 0 18.36 0 0 Z " fill="#414144" transform="translate(106,28)"/>
<path d="M0 0 C2.86282301 1.4314115 3.73782253 2.35329558 4.9375 5.3125 C5.0210371 8.90459547 3.85920856 10.97017865 2 14 C-0.88861709 15.44430855 -2.79647701 15.37688506 -6 15 C-9.36344489 12.51397551 -10.80057749 11.08574477 -11.5625 6.9375 C-11 4 -11 4 -9.4375 1.625 C-6.08716465 -0.6085569 -3.9518567 -0.49398209 0 0 Z " fill="#414044" transform="translate(116,5)"/>
</svg>
