<?xml version="1.0" encoding="UTF-8"?>
<svg version="1.1" xmlns="http://www.w3.org/2000/svg" width="386" height="76">
<path d="M0 0 C2.5104422 0.85185855 4.47485735 2.02313479 6.70605469 3.45532227 C7.55039062 3.99350586 8.39472656 4.53168945 9.26464844 5.08618164 C10.57369141 5.93212891 10.57369141 5.93212891 11.90917969 6.79516602 C12.79734375 7.36299805 13.68550781 7.93083008 14.60058594 8.51586914 C16.78996959 9.91660384 18.97597113 11.32233358 21.15917969 12.73266602 C27.70479212 8.98915163 34.10017709 5.25121904 40.12402344 0.70141602 C42.88532714 -0.61298575 44.23808778 -0.06570835 47.15917969 0.73266602 C50.41835439 2.44666287 53.41969937 4.55053011 56.47167969 6.60766602 C57.30763672 7.15036133 58.14359375 7.69305664 59.00488281 8.25219727 C59.79443359 8.77942383 60.58398438 9.30665039 61.39746094 9.84985352 C62.11973877 10.3305127 62.8420166 10.81117187 63.58618164 11.30639648 C64.105271 11.77706543 64.62436035 12.24773438 65.15917969 12.73266602 C65.15917969 13.72266602 65.15917969 14.71266602 65.15917969 15.73266602 C63.63037109 17.05126953 63.63037109 17.05126953 61.51074219 18.36157227 C60.37378906 19.07796875 60.37378906 19.07796875 59.21386719 19.80883789 C58.41207031 20.29932617 57.61027344 20.78981445 56.78417969 21.29516602 C55.21258838 22.27358366 53.6422189 23.25396736 52.07324219 24.23657227 C51.37150879 24.66784424 50.66977539 25.09911621 49.94677734 25.54345703 C48.01972147 26.74074108 48.01972147 26.74074108 46.15917969 28.73266602 C46.76503906 29.11600098 47.37089844 29.49933594 47.99511719 29.89428711 C50.72116977 31.62480626 53.44020361 33.36605161 56.15917969 35.10766602 C57.11308594 35.71094727 58.06699219 36.31422852 59.04980469 36.93579102 C59.95214844 37.51586914 60.85449219 38.09594727 61.78417969 38.69360352 C62.62207031 39.22775879 63.45996094 39.76191406 64.32324219 40.31225586 C64.92910156 40.78099121 65.53496094 41.24972656 66.15917969 41.73266602 C66.15917969 42.39266602 66.15917969 43.05266602 66.15917969 43.73266602 C64.13964844 45.24487305 64.13964844 45.24487305 61.34667969 46.99047852 C60.35410156 47.61567383 59.36152344 48.24086914 58.33886719 48.88500977 C57.28957031 49.53598633 56.24027344 50.18696289 55.15917969 50.85766602 C53.58523437 51.84573242 53.58523437 51.84573242 51.97949219 52.85375977 C49.37663422 54.48646158 46.76978857 56.11239692 44.15917969 57.73266602 C43.44270264 57.27303467 42.72622559 56.81340332 41.98803711 56.33984375 C36.86525526 53.06458031 31.73940389 49.83185408 26.47167969 46.79516602 C24.71855469 45.78454102 22.96542969 44.77391602 21.15917969 43.73266602 C14.22917969 48.35266602 7.29917969 52.97266602 0.15917969 57.73266602 C-5.7392518 54.45575963 -11.35210905 51.19364799 -16.90332031 47.42016602 C-17.57814453 46.96577148 -18.25296875 46.51137695 -18.94824219 46.04321289 C-20.58128723 44.94293432 -22.21138234 43.83827939 -23.84082031 42.73266602 C-19.65267759 39.19711358 -15.18403091 36.34515832 -10.52832031 33.48266602 C-9.4174707 32.79430664 -9.4174707 32.79430664 -8.28417969 32.09204102 C-6.47151422 30.96935789 -4.65641247 29.85060995 -2.84082031 28.73266602 C-7.2985019 24.99808164 -12.06194058 22.00650099 -17.02050781 19.00024414 C-21.73244593 16.05778917 -21.73244593 16.05778917 -22.84082031 12.73266602 C-19.71678547 10.7519727 -16.59143067 8.773372 -13.46582031 6.79516602 C-12.57636719 6.23120117 -11.68691406 5.66723633 -10.77050781 5.08618164 C-9.49433594 4.27890625 -9.49433594 4.27890625 -8.19238281 3.45532227 C-7.01409912 2.70907593 -7.01409912 2.70907593 -5.81201172 1.94775391 C-2.14653372 -0.31173136 -2.14653372 -0.31173136 0 0 Z M16.46777344 17.57641602 C15.52353516 18.16293945 14.57929687 18.74946289 13.60644531 19.35375977 C12.61322266 19.97379883 11.62 20.59383789 10.59667969 21.23266602 C9.10104492 22.16272461 9.10104492 22.16272461 7.57519531 23.11157227 C5.10194762 24.649956 2.63001214 26.19040717 0.15917969 27.73266602 C3.52963246 31.27519373 7.42611494 33.83322839 11.47167969 36.54516602 C12.59219727 37.33697266 12.59219727 37.33697266 13.73535156 38.14477539 C18.07164188 41.11969963 18.07164188 41.11969963 23.14746094 41.40844727 C27.22893519 39.13743241 31.15045696 36.70120289 35.03417969 34.10766602 C35.81792969 33.59204102 36.60167969 33.07641602 37.40917969 32.54516602 C39.32990575 31.28029763 41.24632316 30.00939098 43.15917969 28.73266602 C38.98370743 25.21474845 34.53984255 22.34768045 29.90917969 19.48266602 C29.17699219 19.02375977 28.44480469 18.56485352 27.69042969 18.09204102 C22.01037902 14.4004311 22.01037902 14.4004311 16.46777344 17.57641602 Z " fill="#414144" transform="translate(24.8408203125,0.267333984375)"/>
<path d="M0 0 C28.8 0 28.8 0 36 7 C40.81367546 15.25201507 41.45900063 24.67210583 39.31640625 33.96484375 C36.97310868 40.43078933 33.96406888 44.09788125 27.6809082 47.11279297 C24.64568118 48.11725659 22.23546842 48.22805609 19.04296875 48.1953125 C18.04031982 48.19031738 17.0376709 48.18532227 16.00463867 48.18017578 C14.74498291 48.16196777 13.48532715 48.14375977 12.1875 48.125 C6.1546875 48.063125 6.1546875 48.063125 0 48 C0 32.16 0 16.32 0 0 Z M11 9 C11 18.9 11 28.8 11 39 C19.16595943 39.19994891 19.16595943 39.19994891 26 36 C29.19543691 31.0708686 29.54306529 25.70218552 29 20 C27.85467328 16.10433087 26.32285975 12.49214481 23 10 C19.10402133 8.52565835 19.10402133 8.52565835 11 9 Z " fill="#414143" transform="translate(108,14)"/>
<path d="M0 0 C3.63 0 7.26 0 11 0 C11.33 5.28 11.66 10.56 12 16 C13.98 14.68 15.96 13.36 18 12 C22.35236377 11.07874967 26.15959618 11.69872316 30.3125 13.1875 C35.35383189 16.58746802 37.36866513 20.24152735 39 26 C39.85687835 33.94107029 39.53639787 41.22467028 35 48 C30.39713989 52.49059523 26.50471266 53.2873626 20.29296875 53.2265625 C17.04171526 52.90531428 14.71730912 51.76625093 12 50 C11.67 49.34 11.34 48.68 11 48 C10.34 49.32 9.68 50.64 9 52 C6.03 52 3.06 52 0 52 C0 34.84 0 17.68 0 0 Z M11 26 C9.68111383 31.98571416 9.7844332 35.53353644 13 41 C15.12545364 43.22556103 15.12545364 43.22556103 18 44 C21.95592174 43.45435562 24.17899901 42.87396879 26.9375 39.9375 C28.93980143 34.40172546 28.85676423 29.84533833 26.375 24.5 C24.18186637 21.81802786 24.18186637 21.81802786 21.0625 20.9375 C16.51293943 21.03034817 14.14359162 22.85640838 11 26 Z " fill="#414143" transform="translate(266,10)"/>
<path d="M0 0 C4.85629517 3.23753011 7.68346578 6.4574658 9.1875 12.0625 C10.50944991 19.61286775 9.96430864 27.48283639 6.09375 34.21484375 C3.19458523 37.97138346 0.00101087 39.54204114 -4.65234375 40.25 C-11.05962458 40.55832028 -12.28723286 39.80851142 -18.1875 35.875 C-18.5175 41.155 -18.8475 46.435 -19.1875 51.875 C-22.4875 51.875 -25.7875 51.875 -29.1875 51.875 C-29.1875 34.715 -29.1875 17.555 -29.1875 -0.125 C-26.2175 -0.125 -23.2475 -0.125 -20.1875 -0.125 C-20.1875 1.525 -20.1875 3.175 -20.1875 4.875 C-19.5275 4.875 -18.8675 4.875 -18.1875 4.875 C-17.960625 4.25625 -17.73375 3.6375 -17.5 3 C-13.87444875 -2.86994013 -5.74266777 -2.02682392 0 0 Z M-17.1875 10.875 C-19.6630351 14.81335129 -19.89648303 19.33750859 -19.1875 23.875 C-17.35952894 27.74186186 -16.35571435 29.44326861 -12.3125 30.9375 C-8.40046203 30.85925924 -6.387564 30.12959055 -3.1875 27.875 C-0.71980556 23.2614843 -0.7845478 18.81583167 -2.1875 13.875 C-4.04243727 10.76135529 -5.22245621 9.28133423 -8.5625 7.875 C-12.19077967 7.875 -14.18342105 8.8722807 -17.1875 10.875 Z " fill="#414144" transform="translate(252.1875,23.125)"/>
<path d="M0 0 C4.66643291 2.69254137 7.90033466 6.20100399 9.625 11.375 C10.84141739 28.18548946 10.84141739 28.18548946 5.625 34.375 C-1.08726716 39.71741672 -7.06508372 39.96779558 -15.375 39.375 C-20.51303892 38.19926857 -24.02631124 35.39342651 -27.375 31.375 C-30.58351398 24.92419822 -30.59924786 16.69626407 -28.65234375 9.82421875 C-26.31120637 4.79124731 -23.1258417 1.64887971 -18.046875 -0.703125 C-12.18811374 -2.72456894 -5.66137804 -2.57823668 0 0 Z M-16.375 10.375 C-19.34839322 14.83508984 -18.99428706 19.14546484 -18.375 24.375 C-16.54898653 27.75650643 -15.49562036 28.94399217 -11.9375 30.3125 C-8.83293949 30.38822099 -7.09199568 29.87649761 -4.375 28.375 C-0.73303911 24.46098902 -0.86936735 21.1562546 -1.02734375 16.01171875 C-1.50893346 12.35921253 -2.48462046 10.65687859 -5.375 8.375 C-10.08347006 6.77211657 -12.48298293 7.34787561 -16.375 10.375 Z " fill="#414143" transform="translate(208.375,23.625)"/>
<path d="M0 0 C5.06077812 4.14063664 7.59475528 8.41210164 8.3203125 14.8359375 C8.56883636 21.4135356 7.99345072 26.63217988 4 32 C-0.68543439 36.56529505 -5.31646949 38.28986199 -11.8125 38.375 C-18.80369539 38.24601116 -23.31800846 36.54083409 -28.375 31.75 C-32.54784811 24.68825705 -32.45013839 17.87908527 -31 10 C-28.90934238 4.05813097 -25.1290635 0.82528704 -19.75 -2.3125 C-12.75022721 -4.0624432 -6.32782342 -3.5981741 0 0 Z M-18 8 C-20.93067272 12.78676545 -21.45035109 16.45047215 -20.57421875 21.98046875 C-19.73092811 24.94632766 -18.55010894 26.29992737 -16 28 C-12.59139909 29.34550036 -11.28227635 29.10516178 -7.8125 27.8125 C-4.84389076 25.89939627 -4.24452075 25.17152063 -3 22 C-2.26956641 17.32862237 -2.62899793 13.79908138 -4.625 9.5 C-6.81215167 6.8102579 -6.81215167 6.8102579 -9.9375 6 C-13.36858286 6 -15.11158476 6.12643336 -18 8 Z " fill="#414144" transform="translate(340,25)"/>
<path d="M0 0 C4.15428081 -0.61393313 7.87272571 -0.87376915 12 0 C15.10831896 2.93821195 17.07388288 6.20202258 19 10 C19.43828125 9.278125 19.8765625 8.55625 20.328125 7.8125 C25.44660194 0.32204594 25.44660194 0.32204594 30.203125 -0.6640625 C33.19162017 -0.62865379 36.04574119 -0.44313882 39 0 C36.11894735 5.52201759 32.61974469 9.98467167 28.51171875 14.66796875 C26.76567153 16.80966946 26.76567153 16.80966946 27.24902344 18.90698242 C28.06772238 21.18874641 29.09427348 22.8505657 30.50390625 24.8203125 C30.99697266 25.52027344 31.49003906 26.22023438 31.99804688 26.94140625 C32.51431641 27.66199219 33.03058594 28.38257812 33.5625 29.125 C34.58883068 30.56211731 35.61118016 32.00208887 36.62890625 33.4453125 C37.08338135 34.07969238 37.53785645 34.71407227 38.00610352 35.36767578 C39 37 39 37 39 39 C34.81456294 39.69059712 31.15680053 39.94795329 27 39 C23.57933205 35.75036544 21.27162366 32.11564756 19 28 C18.34257812 29.19109375 18.34257812 29.19109375 17.671875 30.40625 C15.64590857 33.66756182 13.7889144 36.35053132 11 39 C6.84319947 39.94795329 3.18543706 39.69059712 -1 39 C0.49325967 34.44342479 3.0903119 31.05765456 6.0625 27.375 C9.62551558 23.04351335 9.62551558 23.04351335 12 18 C11.02146072 16.12685813 11.02146072 16.12685813 9.47265625 14.27734375 C8.92802734 13.57416016 8.38339844 12.87097656 7.82226562 12.14648438 C7.24154297 11.41751953 6.66082031 10.68855469 6.0625 9.9375 C4.92427414 8.49150804 3.78994892 7.04243433 2.66015625 5.58984375 C1.89650757 4.62872681 1.89650757 4.62872681 1.11743164 3.64819336 C0 2 0 2 0 0 Z " fill="#414144" transform="translate(347,23)"/>
<path d="M0 0 C4.23226605 2.46604478 8.31523706 5.08480361 12.3515625 7.859375 C13.18300781 8.42269531 14.01445313 8.98601563 14.87109375 9.56640625 C16.91059807 10.94951837 18.94548791 12.33892676 20.9765625 13.734375 C17.05841573 17.97393225 12.85275921 21.04150954 7.9765625 24.109375 C7.27789062 24.57214844 6.57921875 25.03492187 5.859375 25.51171875 C5.17617188 25.94355469 4.49296875 26.37539062 3.7890625 26.8203125 C3.17675781 27.2126709 2.56445312 27.6050293 1.93359375 28.00927734 C-0.75796181 29.00652285 -2.3032936 28.56968026 -5.0234375 27.734375 C-7.11987305 26.62695312 -7.11987305 26.62695312 -9.16015625 25.265625 C-9.90201172 24.77707031 -10.64386719 24.28851563 -11.40820312 23.78515625 C-12.16810547 23.27339844 -12.92800781 22.76164062 -13.7109375 22.234375 C-15.23522526 21.22327685 -16.75994436 20.21282859 -18.28515625 19.203125 C-18.95506592 18.75388672 -19.62497559 18.30464844 -20.31518555 17.84179688 C-22.03267273 16.68338863 -22.03267273 16.68338863 -24.0234375 15.734375 C-21.84306555 10.41846158 -17.45996367 8.3366151 -12.7734375 5.359375 C-11.92652344 4.78832031 -11.07960938 4.21726562 -10.20703125 3.62890625 C-3.98232971 -0.34986876 -3.98232971 -0.34986876 0 0 Z " fill="#424145" transform="translate(48.0234375,47.265625)"/>
<path d="M0 0 C2.97 0 5.94 0 9 0 C9.66 1.65 10.32 3.3 11 5 C11.61875 4.360625 12.2375 3.72125 12.875 3.0625 C16.98784731 -0.92938121 20.47584906 -0.07891644 26 0 C26 3.63 26 7.26 26 11 C23.6178125 11.185625 23.6178125 11.185625 21.1875 11.375 C17.50657469 11.66182535 16.16240582 11.89172945 13 14 C11.91809013 16.93836434 11.816356 19.87394506 11.68359375 22.984375 C11.64169922 23.91894531 11.59980469 24.85351562 11.55664062 25.81640625 C11.49766602 27.26853516 11.49766602 27.26853516 11.4375 28.75 C11.39431641 29.73355469 11.35113281 30.71710937 11.30664062 31.73046875 C11.20078051 34.15348927 11.09990688 36.57672672 11 39 C7.37 39 3.74 39 0 39 C0 26.13 0 13.26 0 0 Z " fill="#414143" transform="translate(152,23)"/>
</svg>
